<?xml version="1.0" standalone="no"?>
<!DOCTYPE svg PUBLIC "-//W3C//DTD SVG 20010904//EN"
 "http://www.w3.org/TR/2001/REC-SVG-20010904/DTD/svg10.dtd">
<svg version="1.0" xmlns="http://www.w3.org/2000/svg"
 width="2160.000000pt" height="2160.000000pt" viewBox="0 0 2160.000000 2160.000000"
 preserveAspectRatio="xMidYMid meet">
<metadata>
Created by potrace 1.11, written by Peter Selinger 2001-2013
</metadata>
<g transform="translate(0.000000,2160.000000) scale(0.100000,-0.100000)"
fill="#000000" stroke="none">
<path d="M14678 21595 c-2 -1 -42 -6 -89 -9 -47 -4 -94 -8 -105 -10 -10 -2
-45 -7 -78 -11 -66 -8 -104 -14 -126 -20 -8 -2 -31 -7 -50 -10 -144 -25 -383
-93 -556 -160 -609 -236 -1138 -648 -1520 -1185 -54 -77 -77 -112 -138 -213
-214 -358 -382 -834 -431 -1223 -4 -27 -8 -60 -11 -74 -19 -114 -27 -569 -11
-725 7 -73 28 -229 43 -315 26 -155 107 -437 181 -625 118 -302 356 -698 542
-904 13 -14 40 -46 59 -70 49 -59 263 -267 339 -330 189 -155 381 -285 586
-395 100 -54 323 -156 340 -156 7 0 23 -6 37 -13 74 -39 419 -136 570 -161 19
-3 46 -8 60 -11 14 -3 45 -8 70 -11 25 -3 52 -7 60 -9 8 -2 53 -7 100 -11 47
-3 96 -8 110 -10 35 -4 417 -4 460 0 19 2 69 7 110 11 41 3 84 8 95 10 11 2
40 7 65 10 25 3 56 7 70 10 14 3 41 8 60 11 245 39 568 145 835 275 182 88
244 123 397 225 541 359 952 853 1214 1459 7 17 21 50 32 75 28 65 123 360
137 426 31 151 65 332 70 379 3 33 10 94 14 135 14 114 10 540 -5 665 -22 175
-36 260 -65 390 -97 424 -279 832 -532 1190 -39 55 -73 102 -77 105 -3 3 -21
25 -40 50 -44 57 -92 111 -200 224 -320 334 -745 618 -1170 783 -74 28 -228
83 -250 88 -8 2 -69 18 -135 35 -171 45 -365 80 -535 96 -52 5 -527 13 -532 9z"/>
<path d="M6318 19665 c-2 -2 -34 -6 -73 -9 -82 -8 -119 -13 -160 -20 -16 -3
-46 -8 -65 -11 -19 -3 -87 -19 -150 -35 -274 -70 -511 -171 -740 -318 -52 -34
-189 -131 -200 -142 -3 -3 -27 -23 -55 -45 -64 -51 -248 -235 -300 -300 -22
-27 -43 -52 -46 -55 -11 -10 -116 -156 -151 -210 -185 -292 -323 -660 -363
-970 -3 -25 -8 -56 -10 -70 -15 -81 -22 -387 -11 -515 28 -345 113 -641 270
-950 95 -186 191 -329 336 -500 107 -126 326 -319 485 -426 148 -99 461 -259
508 -259 7 0 17 -4 23 -9 21 -21 303 -98 439 -120 429 -71 866 -36 1257 98
373 129 669 313 944 586 142 142 161 163 251 286 102 139 149 215 215 344 138
270 228 572 262 885 13 122 15 454 3 515 -4 17 -9 55 -12 85 -3 30 -7 66 -10
80 -2 14 -7 39 -10 55 -100 532 -366 1012 -765 1377 -96 88 -271 225 -319 250
-14 7 -28 16 -31 19 -10 11 -218 127 -241 134 -13 4 -28 11 -34 15 -55 43
-459 174 -602 195 -16 2 -37 6 -48 8 -11 3 -49 8 -85 12 -36 5 -74 10 -85 12
-24 4 -423 11 -427 8z"/>
<path d="M10437 14484 c-1 -1 -63 -5 -137 -9 -74 -4 -151 -8 -170 -10 -19 -2
-78 -6 -130 -10 -52 -4 -102 -8 -110 -10 -9 -2 -47 -6 -85 -9 -39 -4 -88 -9
-110 -12 -22 -2 -58 -7 -80 -10 -22 -2 -51 -7 -65 -9 -14 -2 -45 -7 -70 -10
-25 -3 -56 -7 -70 -10 -14 -3 -43 -7 -65 -10 -22 -3 -51 -7 -65 -10 -14 -3
-41 -8 -60 -11 -19 -3 -80 -15 -135 -26 -55 -10 -111 -21 -125 -24 -14 -2 -65
-14 -115 -25 -49 -12 -97 -22 -106 -24 -14 -3 -105 -27 -324 -85 -271 -72
-626 -200 -965 -347 -687 -299 -1336 -719 -1889 -1222 -624 -568 -1153 -1274
-1520 -2026 -45 -93 -86 -177 -91 -186 -56 -107 -222 -534 -301 -774 -34 -101
-126 -428 -155 -545 -38 -159 -91 -430 -119 -615 -9 -55 -17 -111 -20 -125 -2
-14 -6 -47 -10 -75 -3 -27 -8 -63 -11 -80 -2 -16 -6 -55 -8 -85 -8 -91 -17
-193 -21 -225 -25 -182 -24 -1010 0 -1205 2 -19 7 -71 11 -115 10 -133 13
-161 29 -278 25 -192 60 -403 96 -578 11 -52 21 -104 23 -115 14 -69 94 -374
131 -499 156 -527 372 -1037 641 -1510 102 -181 117 -204 259 -419 388 -583
862 -1102 1410 -1541 77 -62 156 -123 175 -136 19 -13 62 -45 95 -70 82 -63
386 -262 520 -341 390 -231 830 -437 1245 -585 241 -86 699 -221 842 -248 11
-2 27 -6 36 -9 9 -3 28 -7 42 -10 14 -2 69 -14 124 -25 54 -12 110 -23 125
-26 65 -12 209 -37 236 -41 17 -3 73 -11 125 -19 140 -21 153 -23 305 -40 77
-9 176 -18 220 -21 44 -2 94 -7 110 -9 74 -11 368 -20 695 -20 449 1 651 11
1060 56 220 24 384 50 720 113 131 24 399 89 605 146 121 34 548 178 690 233
338 131 854 384 1070 525 11 7 28 15 38 18 9 4 17 10 17 15 0 5 5 9 10 9 6 0
23 8 38 19 15 10 68 44 117 76 165 106 454 316 571 414 17 14 52 44 79 66 191
155 436 389 635 606 161 175 235 261 350 409 46 59 46 59 81 105 16 22 35 47
42 55 7 8 23 32 36 53 12 20 27 37 32 37 5 0 9 4 9 10 0 5 21 40 48 77 292
414 590 984 788 1508 115 305 250 757 300 1000 15 73 55 274 58 290 19 101 74
474 81 555 2 25 6 72 9 105 26 267 31 386 31 755 0 319 -8 578 -20 634 -2 12
-7 60 -10 107 -3 47 -7 95 -9 105 -2 10 -7 46 -10 79 -14 126 -17 151 -22 175
-2 14 -7 42 -9 63 -9 66 -55 329 -70 395 -8 34 -17 77 -20 95 -3 17 -17 79
-31 137 -14 58 -27 112 -29 120 -2 8 -11 42 -20 75 -9 33 -18 67 -20 75 -23
96 -169 545 -200 615 -7 17 -27 68 -45 115 -18 47 -41 104 -51 127 -11 24 -19
45 -19 48 0 3 -22 53 -50 111 -27 58 -50 108 -50 110 0 11 -167 337 -231 452
-133 237 -370 603 -476 737 -4 6 -37 48 -73 95 -35 47 -67 87 -70 90 -3 3 -32
39 -65 80 -291 365 -737 793 -1145 1098 -52 39 -106 80 -120 90 -14 11 -101
70 -195 133 -198 133 -315 205 -475 292 -30 16 -68 38 -85 47 -54 32 -367 187
-475 235 -114 50 -252 109 -260 110 -3 1 -22 9 -44 18 -21 9 -41 17 -45 17 -3
0 -38 13 -78 29 -345 141 -983 311 -1478 395 -79 13 -113 18 -200 31 -23 3
-105 14 -155 20 -19 3 -51 7 -70 10 -19 2 -62 7 -95 10 -33 3 -78 8 -100 10
-262 27 -501 38 -898 39 -197 1 -359 1 -360 0z m648 -3958 c168 -14 175 -15
380 -51 115 -20 402 -101 480 -135 11 -5 49 -21 84 -35 431 -177 808 -470
1124 -874 35 -45 168 -243 194 -291 28 -50 83 -150 99 -180 77 -144 191 -445
249 -660 29 -105 28 -103 50 -210 8 -41 18 -86 20 -100 7 -34 32 -203 40 -265
3 -27 8 -66 10 -85 23 -171 23 -654 0 -855 -2 -22 -7 -65 -10 -95 -7 -61 -10
-84 -21 -150 -4 -25 -8 -52 -9 -60 -2 -13 -22 -117 -39 -207 -12 -59 -71 -270
-103 -368 -66 -200 -212 -529 -274 -617 -11 -14 -19 -29 -19 -32 0 -16 -201
-310 -230 -336 -3 -3 -30 -36 -61 -75 -31 -38 -107 -120 -170 -182 -95 -94
-155 -145 -344 -291 -82 -64 -365 -219 -505 -277 -111 -46 -324 -117 -384
-129 -12 -3 -59 -13 -106 -24 -47 -11 -103 -23 -125 -26 -22 -4 -65 -11 -95
-16 -225 -38 -658 -45 -880 -15 -19 3 -55 7 -80 10 -39 5 -97 14 -188 31 -344
64 -725 225 -1019 430 -459 320 -812 787 -1039 1375 -66 170 -160 500 -179
627 -3 21 -8 49 -10 62 -10 47 -24 145 -35 235 -49 388 -44 826 11 1195 6 36
12 80 14 98 20 162 149 632 201 734 8 15 15 31 15 35 7 50 160 358 249 503
165 266 392 528 612 705 176 142 428 294 628 379 180 77 431 150 635 185 55 9
79 13 185 26 19 2 78 7 130 11 52 3 96 7 97 8 5 4 355 -2 418 -8z"/>
</g>
</svg>
